<svg width="141" height="378" viewBox="0 0 141 378" fill="none" xmlns="http://www.w3.org/2000/svg">
<path d="M2.3159 350.765C-0.0777543 189.025 11.3281 96.4364 29.8533 55.9637L45.875 40.4741L35.3607 33.9785C43.753 27.0125 48.9293 23.6383 62.3974 22.4862L75.9157 2L81.9239 3.49899C87.9503 13.6234 90.5006 19.4472 91.4368 30.4808C100.716 36.905 104.752 41.0711 108.961 49.9677C106.133 54.3519 103.868 56.5088 97.9456 59.4613L103.954 64.9576C114.826 89.9844 119.518 126.2 126.484 213.857C132.344 236.983 134.261 254.991 134.996 297.301L136.999 298.301V317.288L134.996 319.786C134.642 325.072 135.167 327.842 138 332.278C129.041 337.008 123.148 339.254 110.463 342.271L101.951 326.282C92.7311 331.491 86.6965 332.919 74.9144 333.777V339.773L65.9022 346.268L67.9049 355.262L63.3988 355.762L68.4055 368.253C55.9125 369.226 49.5848 371.134 38.8655 375.748C35.573 376.546 29.6079 375.371 19.1192 373.305L18.8383 373.25L15.3335 360.758L7.82333 358.76L5.82061 355.762L2.3159 350.765Z" stroke="#FFF2F8" stroke-width="3"/>
</svg>
