<svg width="180" height="117" viewBox="0 0 180 117" fill="none" xmlns="http://www.w3.org/2000/svg">
<path d="M2.93567 87.799L2.89853 87.8185L2.86254 87.8401C2.0301 88.3379 1.69636 89.178 1.57391 89.866C1.44994 90.5625 1.49472 91.3292 1.61397 92.0642C1.85461 93.5474 2.45952 95.261 3.22181 96.8135C3.97936 98.3564 4.96008 99.8787 6.03115 100.909C6.56265 101.42 7.20622 101.898 7.94203 102.135C8.72063 102.386 9.60077 102.357 10.4003 101.849L17.2205 97.9644L20.074 97.0164L20.2179 96.9686L20.3493 96.893L70.5649 67.9924L37.6584 92.9049L37.3424 93.1442L37.1858 93.5083L35.7753 96.7883L30.9258 102.588L30.6122 102.963L30.5798 103.451C30.3645 106.694 30.5954 109.318 32.0049 111.23C33.4445 113.184 35.8237 114.019 38.8345 114.483L39.4439 114.576L39.9431 114.215L45.2676 110.355L49.0693 108.934L49.3331 108.836L49.5432 108.648L135.742 31.6772L172.331 11.9656C172.375 11.9552 172.425 11.9431 172.48 11.9294C172.705 11.8733 173.018 11.7888 173.382 11.6721C174.097 11.4431 175.068 11.0718 175.963 10.5144C176.834 9.97204 177.816 9.13943 178.264 7.9136C178.747 6.58909 178.485 5.15762 177.54 3.74456C176.648 2.41086 175.516 1.54742 174.144 1.50182C172.851 1.45885 171.821 2.16876 171.148 2.80244C170.447 3.46183 169.899 4.25743 169.539 4.84582C169.406 5.06442 169.293 5.26371 169.203 5.42992L147.542 15.6751L151.709 11.3138C151.71 11.3137 151.71 11.3135 151.711 11.3133C151.903 11.2299 152.171 11.1085 152.479 10.953C153.081 10.6484 153.897 10.1841 154.614 9.58195C155.294 9.01161 156.109 8.13315 156.32 6.95681C156.559 5.62198 155.951 4.41146 154.811 3.43804C153.709 2.49613 152.494 2.04794 151.259 2.3214C150.108 2.57643 149.316 3.38393 148.817 4.0714C148.303 4.78156 147.951 5.57075 147.733 6.14385C147.648 6.36704 147.58 6.56751 147.528 6.73161L127.537 24.7119L15.4413 80.3235L15.2843 80.4013L15.1496 80.5133L12.277 82.899L2.93567 87.799Z" stroke="#FFF2F8" stroke-width="3"/>
</svg>
