<svg width="108" height="307" viewBox="0 0 108 307" fill="none" xmlns="http://www.w3.org/2000/svg">
<path d="M57.8782 172.312L54.7749 169.17L39.1022 55.1142L44.4103 39.9681L44.5442 39.5858L44.4676 39.1881L40.5824 19.0278L43.4641 7.3572L43.7757 6.09526L42.5709 5.60733L35.1693 2.60969L34.6239 2.38881L34.0738 2.59768L26.1788 5.59531L25.4389 5.87625L25.2531 6.64561L19.8253 29.1278L19.7916 29.2675L19.785 29.411L18.7981 50.8941L18.762 51.6811L19.3894 52.1575L20.7703 53.2061V59.4562V59.5372L20.779 59.6177L32.9671 172.162C23.8023 174.04 17.7058 176.559 13.2956 180.411C8.66428 184.455 6.0711 189.816 3.58574 196.847L2.97855 198.565L4.78107 198.831C12.2188 199.928 17.7202 201.272 21.3594 203.615C23.1426 204.763 24.4513 206.136 25.3261 207.829C26.2048 209.53 26.6916 211.643 26.6916 214.334V303.264V304.614L28.034 304.755C37.4542 305.75 42.0616 305.745 53.486 304.758C73.8968 302.994 87.7708 297.432 96.2152 289.56C104.715 281.637 107.557 271.518 106.161 261.098C104.144 246.033 98.9226 237.941 94.8527 231.746L94.7781 231.632C92.7713 228.578 91.1787 226.154 90.3043 223.578C89.4492 221.06 89.2727 218.347 90.324 214.755C92.9433 205.807 93.8811 199.926 93.2234 195.632C92.5353 191.14 90.1352 188.554 86.8037 186.14L85.8169 185.426L84.915 186.245C80.526 190.233 77.0322 192.68 74.1988 193.837C71.4276 194.969 69.4406 194.815 67.8066 193.823C66.057 192.762 64.4271 190.577 62.8304 187.002C61.2487 183.46 59.793 178.774 58.2611 172.983L58.1589 172.596L57.8782 172.312Z" stroke="#FFF2F8" stroke-width="3"/>
</svg>
