<svg width="132" height="98" viewBox="0 0 132 98" fill="none" xmlns="http://www.w3.org/2000/svg">
<path d="M3.12675 40.2143L3.33157 40.5366L3.6656 40.7218L102.153 95.3119L102.725 95.6286L103.346 95.426L106.361 94.4424L106.859 94.28L107.147 93.8428L128.252 61.8756L129.14 60.531L127.735 59.7416L26.2321 2.69238L25.4761 2.26744L24.7306 2.7107C22.0778 4.28804 19.2155 7.51329 15.8272 12.0249C12.7594 16.11 9.13537 21.4275 4.726 27.8974C4.21264 28.6507 3.68863 29.4196 3.15361 30.2039L3.0957 30.2888L3.04991 30.3809C2.23462 32.019 1.57807 33.5436 1.50655 35.1632C1.43196 36.8523 1.99385 38.4313 3.12675 40.2143Z" stroke="#FFF2F8" stroke-width="3"/>
</svg>
