<svg width="83" height="32" viewBox="0 0 83 32" fill="none" xmlns="http://www.w3.org/2000/svg">
<path d="M3.04981 22.4431L2.13905 23.1887L2.64666 24.2507C3.75875 26.5772 5.0791 28.1602 7.00747 29.1354C8.8521 30.0682 11.0901 30.3534 13.7932 30.4979L13.9128 30.5043L14.032 30.4916L27.5911 29.0479L29.3087 29.4746L29.5984 29.5466L29.8936 29.5022L45.6138 27.1352L46.6136 27.7977L47.0359 28.0774L47.5412 28.0439L54.7125 27.5688L56.46 28.0029L56.7386 28.0721L57.023 28.0336L78.6654 25.1009C79.9513 25.0391 80.6203 24.0119 80.9175 23.2884C81.2419 22.4986 81.3937 21.5006 81.4589 20.4801C81.5916 18.4022 81.3919 15.7122 81.0147 13.0884C80.6363 10.4563 80.0654 7.79523 79.4161 5.76287C79.0948 4.75689 78.7327 3.83591 78.3312 3.13758C78.1324 2.79193 77.8852 2.43168 77.5758 2.14C77.2776 1.85884 76.7681 1.5 76.0743 1.5H75.9538L75.8348 1.51925L54.6074 4.95321L54.1316 5.03019L53.7897 5.36997L52.6723 6.4803L49.2318 6.90767L48.5525 6.99205L48.1711 7.56055L47.6294 8.36792H45.4674H44.543L44.1275 9.19373L43.4891 10.4625L27.966 12.7997L27.4804 12.8729L27.132 13.219L26.486 13.861C19.929 14.9356 15.4222 15.9744 11.9021 17.2826C8.25347 18.6386 5.70631 20.2683 3.04981 22.4431Z" stroke="#FFF2F8" stroke-width="3"/>
</svg>
