<svg width="161" height="78" viewBox="0 0 161 78" fill="none" xmlns="http://www.w3.org/2000/svg">
<path d="M2.51972 40.7866L2.33972 41.8858L3.33993 42.3759L70.6215 75.347L71.0388 75.5515L71.4986 75.4842L158.217 62.8031L159.5 62.6154V61.3188V57.2609V56.1756L158.469 55.8361L145.786 51.6599L146.022 51.5799L150.815 49.9538L145.91 48.7057L134.485 45.7985L134.88 45.3957L144.483 42.4636L145.316 42.2094L145.508 41.3607L147.003 34.7665L147.298 33.467L146.042 33.0212L60.3206 2.58645L59.9894 2.46885L59.6404 2.51064L51.1679 3.52513L51.138 3.52871L51.1083 3.53349L3.762 11.1422L2.5 11.345V12.6232V27.8406V28.5466L3.04408 28.9965L9.20355 34.0901L3.85483 36.6306L3.14508 36.9677L3.0181 37.7431L2.51972 40.7866Z" stroke="#FFF2F8" stroke-width="3"/>
</svg>
