<svg width="60" height="288" viewBox="0 0 60 288" fill="none" xmlns="http://www.w3.org/2000/svg">
<path d="M23.2944 285.009L23.3037 286.5H24.7944H32.2243H33.7243V285V251.507L35.3814 249.416L35.7099 249.001L35.7056 248.472L34.7229 127.399L38.2871 125.799L39.1729 125.401V124.43V107.107L50.3778 108.413L50.668 108.446L50.9497 108.369L56.3983 106.868L57.5358 106.555L57.4993 105.376L56.5086 73.3618L56.5014 73.1283L56.4235 72.9081L54.0327 66.1478V43.3952V42.9599L53.7997 42.5923L46.0689 30.3936L44.6155 14.2481L44.6146 14.2389L44.6137 14.2298C44.1821 10.0167 41.5557 6.77317 38.076 4.64603C34.6062 2.52493 30.1864 1.43662 25.8242 1.50286C21.4615 1.5691 17.0229 2.79349 13.5758 5.4581C10.0945 8.14906 7.72318 12.238 7.44723 17.7801L6.51879 28.0937L3.085 30.6945L2.55339 31.0971L2.49618 31.7615L1.50553 43.2665L1.4956 43.3819L1.50349 43.4974L2.49414 58.0037L2.52107 58.398L2.73883 58.7279L7.44393 65.8552V108.924V109.987L8.44681 110.339L19.0101 114.049L20.3448 121.687L20.3821 121.901L20.4782 122.095L22.3059 125.786L23.2944 285.009Z" stroke="#FFF2F8" stroke-width="3"/>
</svg>
