<svg width="86" height="148" viewBox="0 0 86 148" fill="none" xmlns="http://www.w3.org/2000/svg">
<path d="M41.1776 92.1821L42.1391 136.504C35.7616 136.538 31.9493 137.153 29.4657 138.442C26.7869 139.832 25.8062 141.94 24.8468 144.003C24.7908 144.123 24.7347 144.243 24.6785 144.364L23.6775 146.5H26.0368H78.4381H81.5409L79.6137 144.068L74.0712 137.075L73.6208 136.507H72.8957H54.7306C54.434 107.427 53.543 96.0587 51.1667 86.5768C59.1889 86.5736 64.7924 85.6259 69.2176 83.458C74.0295 81.1008 77.2607 77.3914 80.6813 72.4236L80.7685 72.2969L80.8282 72.1551C86.9404 57.6422 84.9632 41.8137 78.2819 28.8925C71.6102 15.9896 60.1498 5.79947 47.0422 2.68091L46.6951 4.13953L47.0422 2.6809C42.4273 1.58302 39.0715 1.21029 35.6512 1.73398C32.3453 2.24014 29.0935 3.56914 24.6935 5.63719H19.9906H19.7823L19.5819 5.69396L12.5277 7.69198L11.6682 7.93542L11.4728 8.80713L9.52649 17.4904C3.60219 25.5658 0.531991 33.1384 1.77152 41.5335C3.01118 49.9295 8.51965 58.8133 18.9095 69.6158L18.9162 69.6228L18.923 69.6296L41.1776 92.1821Z" stroke="#FFF2F8" stroke-width="3"/>
</svg>
