<svg width="191" height="317" viewBox="0 0 191 317" fill="none" xmlns="http://www.w3.org/2000/svg">
<path d="M49.1145 5.09112L52.5037 61.8046L32.6263 64.6053L3.93971 65.6042L3.16642 65.6312L2.74011 66.2769L1.7482 67.7793L1.49749 68.1591L1.50002 68.6141L2.49191 246.898V246.902V249.903V250.929L3.44885 251.301L8.00109 253.069L5.29595 256.483L4.9717 256.893V257.415V261.421V262.167L5.56609 262.617L7.1177 263.792L8.93935 271.61V278.449C8.93935 281.411 10.5309 283.856 12.7629 285.508C14.9859 287.154 17.9237 288.088 20.9164 288.088C23.9231 288.088 27.0586 287.144 29.621 284.939C32.1941 282.724 34.0761 279.336 34.7386 274.653L34.7443 274.612L34.7478 274.571L35.5884 264.81L78.5787 275.663L80.8796 287.745L80.9082 287.895L80.9665 288.036L85.8143 299.785C85.9171 309.103 90.7855 314.763 96.6264 315.435C102.563 316.118 108.305 311.517 109.626 302.711L109.643 302.601V302.489V279.811L158.248 275.091C158.463 281.985 160.026 287.281 162.391 290.946C164.947 294.907 168.507 297.028 172.229 296.914C175.942 296.8 179.379 294.476 181.73 290.469C184.014 286.575 185.334 281.023 185.054 273.971L188.134 270.417L188.506 269.988L188.5 269.42L186.516 71.0949L186.504 69.8513L185.279 69.6331L169.683 66.8539L171.141 4.03481L171.177 2.48703L169.629 2.50005L50.5992 3.50169L49.0203 3.51498L49.1145 5.09112Z" stroke="#FFF2F8" stroke-width="3"/>
</svg>
