<svg width="106" height="46" viewBox="0 0 106 46" fill="none" xmlns="http://www.w3.org/2000/svg">
<path d="M34.3734 43.0736L34.4776 43.1122L34.5864 43.135C44.0439 45.1173 50.2832 44.8009 54.9382 43.083C59.2911 41.4765 62.0801 38.6978 64.6724 35.966L75.9652 38.2466L75.9912 38.2518L76.0174 38.2562C83.6971 39.526 90.7344 39.199 95.9279 36.7447C98.5482 35.5064 100.713 33.7184 102.214 31.3211C103.716 28.9246 104.5 26.0067 104.5 22.5938V22.5483L104.497 22.5029C104.229 18.0795 102.802 13.9832 99.357 10.9534C95.9409 7.94892 90.757 6.18585 83.3762 5.93388L83.3183 5.93191L83.2604 5.9344L60.5584 6.91258L60.5392 6.91341L60.5201 6.91473C58.5309 7.0516 57.015 7.31941 55.8317 7.92531C55.0589 8.32103 54.4871 8.82885 54.025 9.41632C51.8258 8.46669 49.7781 8.20428 46.7095 7.90291C37.1385 6.10293 31.2158 4.63277 20.158 1.5855L20.0097 1.54464L19.8562 1.53472C11.4145 0.989115 5.51288 6.88267 2.97047 13.5629C0.463774 20.1493 0.937921 28.3092 6.20468 32.5636L6.39596 32.7181L6.62656 32.8035L34.3734 43.0736Z" stroke="#FFF2F8" stroke-width="3"/>
</svg>
