<svg width="122" height="86" viewBox="0 0 122 86" fill="none" xmlns="http://www.w3.org/2000/svg">
<path d="M3.35238 58.8884L3.31921 58.9128L3.28743 58.9391C1.03649 60.7959 1.24957 63.7531 2.10831 65.8073C2.55821 66.8835 3.24087 67.8918 4.07743 68.6509C4.88914 69.3873 5.96215 69.9881 7.18543 70.0058L27.5561 71.3499C27.2788 72.1202 27.0745 72.8373 26.9354 73.5527C26.6835 74.848 26.6592 76.0655 26.7357 77.4911L26.7375 77.525L26.7408 77.5589C26.885 79.0121 27.2412 80.3857 28.3823 81.4464C29.4506 82.4395 30.998 82.952 32.942 83.3348L33.0433 83.3548L33.1464 83.3606C42.3771 83.8864 54.775 84.4189 65.2508 84.4916C70.4846 84.5279 75.2671 84.4497 78.9442 84.1946C80.7791 84.0673 82.3751 83.8936 83.6291 83.659C84.2555 83.5419 84.8284 83.4038 85.3179 83.2362C85.7801 83.0781 86.2943 82.8524 86.7 82.4982C91.2538 78.5213 93.6092 73.1307 95.6123 67.8645C95.9125 67.0754 96.2045 66.2904 96.4941 65.5119C97.6527 62.3973 98.7725 59.3871 100.22 56.632L102.217 73.6282L102.373 74.9532H103.707H110.205H111.647L111.704 73.5119C112.207 60.677 113.398 49.5674 117.538 41.4869C119.432 37.7888 120.403 33.2285 120.493 28.9648C120.582 24.737 119.808 20.5528 117.958 17.7211C115.539 14.0188 113.043 11.6392 109.672 11.4841C108.043 11.4092 106.376 11.8688 104.628 12.6968C103.236 13.3564 101.738 14.2761 100.099 15.4239L91.4625 2.37772L91.1272 1.87117L90.5339 1.7407C87.9047 1.16248 84.4469 1.68711 80.9103 2.68161C77.3145 3.69278 73.4064 5.25853 69.7644 6.98249C66.1202 8.70748 62.7018 10.6102 60.0836 12.314C58.7766 13.1645 57.6451 13.9809 56.7772 14.7147C56.3435 15.0813 55.9566 15.4432 55.6408 15.7927C55.3669 16.0957 55.0911 16.4492 54.9017 16.8374L37.9561 44.1517L25.9046 42.7754L25.3192 42.7086L24.8448 43.058L3.35238 58.8884Z" stroke="#FFF2F8" stroke-width="3"/>
</svg>
