<svg width="143" height="436" viewBox="0 0 143 436" fill="none" xmlns="http://www.w3.org/2000/svg">
<path d="M115.014 15.6424C124.148 10.7123 130.279 9.79592 142 9.65155C102.559 -1.91319 77.0586 1.50609 31.5593 7.65462L6.07301 9.65155C13.8534 12.6955 16.8773 16.3913 20.0655 26.6255C30.9989 67.621 38.6076 90.2335 58.5448 128.968C68.1006 149.704 60.9566 160.032 38.0558 177.394C15.475 185.934 7.23313 196.811 4.57345 232.809C2.26562 270.219 2.43033 291.452 4.57345 329.66C0.983727 353.287 1.30439 364.355 4.57345 381.58C12.6269 424.015 38.0558 415.528 36.0569 405.044L31.5593 370.597C31.0972 358.566 41.0982 352.625 38.0558 341.143C26.4322 297.273 25.8629 272.423 31.5593 227.817C36.5188 200.479 40.4642 196.798 48.0505 195.866L75.5357 193.869C96.0031 184.178 93.4232 158.68 82.0322 103.507C92.841 138.007 96.0294 153.135 95.525 171.403C96.3427 193.289 89.0598 199.172 66.5405 201.856C51.5755 201.999 45.5467 206.171 43.0531 227.817C40.2386 253.039 40.7843 267.861 43.0531 294.714C47.2365 322.18 48.2216 341.254 48.0505 381.58L43.0531 413.032C41.1185 421.839 43.0531 432.502 56.0462 434M115.014 17.1401C111.24 24.2193 110.899 29.8251 115.014 44.0987C120.571 71.6996 122.62 96.028 123.51 162.916C131.279 177.578 129.656 184.345 115.014 193.869C89.8013 204.226 79.3722 216.159 71.0381 254.276L68.5395 306.695C68.4828 315.459 70.0588 322.183 75.5357 337.149C75.5016 348.857 75.1067 356.377 72.5373 374.591C74.1589 396.353 63.0424 432.502 56.0462 432.502" stroke="#FFF2F8" stroke-width="3"/>
</svg>
