<svg width="32" height="32" viewBox="0 0 32 32" fill="none" xmlns="http://www.w3.org/2000/svg">
<g filter="url(#filter0_d_217_2384)">
<path d="M13.7132 19.9361C13.7132 18.6843 13.9845 17.6491 14.527 16.8306C15.0931 16.012 15.9069 15.1093 16.9683 14.1222C17.7467 13.4 18.3128 12.7981 18.6667 12.3167C19.0441 11.8111 19.2328 11.2454 19.2328 10.6194C19.2328 9.7287 18.879 9.03055 18.1713 8.525C17.4873 7.99537 16.5673 7.73055 15.4115 7.73055C14.3029 7.73055 13.3122 7.97129 12.4395 8.45278C11.5903 8.91018 10.8709 9.56018 10.2812 10.4028L6 7.83889C6.99069 6.29815 8.3234 5.10648 9.99814 4.26389C11.6965 3.4213 13.7014 3 16.013 3C18.7256 3 20.8957 3.58981 22.5233 4.76944C24.1744 5.94907 25 7.58611 25 9.68055C25 10.6676 24.8349 11.5343 24.5047 12.2806C24.198 13.0269 23.8088 13.6648 23.3371 14.1944C22.8889 14.7 22.2992 15.2898 21.568 15.9639C20.6952 16.7583 20.0583 17.4324 19.6574 17.9861C19.2564 18.5157 19.0559 19.1657 19.0559 19.9361H13.7132ZM16.4022 29C15.4351 29 14.6214 28.687 13.9609 28.0611C13.324 27.4111 13.0056 26.6287 13.0056 25.7139C13.0056 24.7991 13.324 24.0407 13.9609 23.4389C14.5978 22.813 15.4115 22.5 16.4022 22.5C17.3929 22.5 18.2067 22.813 18.8436 23.4389C19.4804 24.0407 19.7989 24.7991 19.7989 25.7139C19.7989 26.6287 19.4687 27.4111 18.8082 28.0611C18.1713 28.687 17.3693 29 16.4022 29Z" fill="white"/>
</g>
<defs>
<filter id="filter0_d_217_2384" x="5" y="3" width="21" height="29" filterUnits="userSpaceOnUse" color-interpolation-filters="sRGB">
<feFlood flood-opacity="0" result="BackgroundImageFix"/>
<feColorMatrix in="SourceAlpha" type="matrix" values="0 0 0 0 0 0 0 0 0 0 0 0 0 0 0 0 0 0 127 0" result="hardAlpha"/>
<feOffset dy="2"/>
<feGaussianBlur stdDeviation="0.5"/>
<feComposite in2="hardAlpha" operator="out"/>
<feColorMatrix type="matrix" values="0 0 0 0 0.870833 0 0 0 0 0.217708 0 0 0 0 0.636999 0 0 0 1 0"/>
<feBlend mode="normal" in2="BackgroundImageFix" result="effect1_dropShadow_217_2384"/>
<feBlend mode="normal" in="SourceGraphic" in2="effect1_dropShadow_217_2384" result="shape"/>
</filter>
</defs>
</svg>
