<svg width="32" height="32" viewBox="0 0 32 32" fill="none" xmlns="http://www.w3.org/2000/svg">
<g clip-path="url(#clip0_217_2354)">
<g filter="url(#filter0_d_217_2354)">
<path d="M21 4.00001V28C20.9999 28.1871 20.9472 28.3705 20.8481 28.5291C20.7489 28.6878 20.6072 28.8155 20.4391 28.8977C20.271 28.9799 20.0832 29.0132 19.8971 28.994C19.711 28.9747 19.534 28.9036 19.3862 28.7888L10.6562 22H5C4.46957 22 3.96086 21.7893 3.58579 21.4142C3.21071 21.0392 3 20.5304 3 20V12C3 11.4696 3.21071 10.9609 3.58579 10.5858C3.96086 10.2107 4.46957 10 5 10H10.6562L19.3862 3.21126C19.534 3.09642 19.711 3.02533 19.8971 3.00607C20.0832 2.98682 20.271 3.02017 20.4391 3.10234C20.6072 3.1845 20.7489 3.31219 20.8481 3.47088C20.9472 3.62957 20.9999 3.8129 21 4.00001ZM25 12C24.7348 12 24.4804 12.1054 24.2929 12.2929C24.1054 12.4804 24 12.7348 24 13V19C24 19.2652 24.1054 19.5196 24.2929 19.7071C24.4804 19.8947 24.7348 20 25 20C25.2652 20 25.5196 19.8947 25.7071 19.7071C25.8946 19.5196 26 19.2652 26 19V13C26 12.7348 25.8946 12.4804 25.7071 12.2929C25.5196 12.1054 25.2652 12 25 12ZM29 10C28.7348 10 28.4804 10.1054 28.2929 10.2929C28.1054 10.4804 28 10.7348 28 11V21C28 21.2652 28.1054 21.5196 28.2929 21.7071C28.4804 21.8947 28.7348 22 29 22C29.2652 22 29.5196 21.8947 29.7071 21.7071C29.8946 21.5196 30 21.2652 30 21V11C30 10.7348 29.8946 10.4804 29.7071 10.2929C29.5196 10.1054 29.2652 10 29 10Z" fill="white"/>
</g>
</g>
<defs>
<filter id="filter0_d_217_2354" x="2" y="3.00076" width="29" height="28.9985" filterUnits="userSpaceOnUse" color-interpolation-filters="sRGB">
<feFlood flood-opacity="0" result="BackgroundImageFix"/>
<feColorMatrix in="SourceAlpha" type="matrix" values="0 0 0 0 0 0 0 0 0 0 0 0 0 0 0 0 0 0 127 0" result="hardAlpha"/>
<feOffset dy="2"/>
<feGaussianBlur stdDeviation="0.5"/>
<feComposite in2="hardAlpha" operator="out"/>
<feColorMatrix type="matrix" values="0 0 0 0 0.870833 0 0 0 0 0.217708 0 0 0 0 0.636999 0 0 0 1 0"/>
<feBlend mode="normal" in2="BackgroundImageFix" result="effect1_dropShadow_217_2354"/>
<feBlend mode="normal" in="SourceGraphic" in2="effect1_dropShadow_217_2354" result="shape"/>
</filter>
<clipPath id="clip0_217_2354">
<rect width="32" height="32" fill="white"/>
</clipPath>
</defs>
</svg>
