<svg width="32" height="32" viewBox="0 0 32 32" fill="none" xmlns="http://www.w3.org/2000/svg">
<g clip-path="url(#clip0_217_2310)">
<g filter="url(#filter0_d_217_2310)">
<path d="M20.44 3.10124C20.2717 3.01904 20.0837 2.98577 19.8974 3.00522C19.7111 3.02467 19.534 3.09605 19.3862 3.21124L10.6562 9.99999H5C4.46957 9.99999 3.96086 10.2107 3.58579 10.5858C3.21071 10.9608 3 11.4696 3 12V20C3 20.5304 3.21071 21.0391 3.58579 21.4142C3.96086 21.7893 4.46957 22 5 22H10.6562L19.3862 28.7887C19.5614 28.926 19.7775 29.0004 20 29C20.2652 29 20.5196 28.8946 20.7071 28.7071C20.8946 28.5196 21 28.2652 21 28V3.99999C21.0001 3.81278 20.9477 3.62929 20.8487 3.47041C20.7497 3.31152 20.6081 3.18361 20.44 3.10124Z" fill="white"/>
</g>
<g filter="url(#filter1_d_217_2310)">
<path d="M29.4138 16L31.7076 13.7075C31.8952 13.5199 32.0006 13.2654 32.0006 13C32.0006 12.7346 31.8952 12.4801 31.7076 12.2925C31.5199 12.1049 31.2654 11.9995 31.0001 11.9995C30.7347 11.9995 30.4802 12.1049 30.2926 12.2925L28.0001 14.5863L25.7076 12.2925C25.5199 12.1049 25.2654 11.9995 25.0001 11.9995C24.7347 11.9995 24.4802 12.1049 24.2926 12.2925C24.1049 12.4801 23.9995 12.7346 23.9995 13C23.9995 13.2654 24.1049 13.5199 24.2926 13.7075L26.5863 16L24.2926 18.2925C24.1049 18.4801 23.9995 18.7346 23.9995 19C23.9995 19.2654 24.1049 19.5199 24.2926 19.7075C24.4802 19.8951 24.7347 20.0006 25.0001 20.0006C25.2654 20.0006 25.5199 19.8951 25.7076 19.7075L28.0001 17.4138L30.2926 19.7075C30.4802 19.8951 30.7347 20.0006 31.0001 20.0006C31.2654 20.0006 31.5199 19.8951 31.7076 19.7075C31.8952 19.5199 32.0006 19.2654 32.0006 19C32.0006 18.7346 31.8952 18.4801 31.7076 18.2925L29.4138 16Z" fill="white"/>
</g>
</g>
<defs>
<filter id="filter0_d_217_2310" x="2" y="2.99982" width="20" height="29.0002" filterUnits="userSpaceOnUse" color-interpolation-filters="sRGB">
<feFlood flood-opacity="0" result="BackgroundImageFix"/>
<feColorMatrix in="SourceAlpha" type="matrix" values="0 0 0 0 0 0 0 0 0 0 0 0 0 0 0 0 0 0 127 0" result="hardAlpha"/>
<feOffset dy="2"/>
<feGaussianBlur stdDeviation="0.5"/>
<feComposite in2="hardAlpha" operator="out"/>
<feColorMatrix type="matrix" values="0 0 0 0 0.870833 0 0 0 0 0.217708 0 0 0 0 0.636999 0 0 0 1 0"/>
<feBlend mode="normal" in2="BackgroundImageFix" result="effect1_dropShadow_217_2310"/>
<feBlend mode="normal" in="SourceGraphic" in2="effect1_dropShadow_217_2310" result="shape"/>
</filter>
<filter id="filter1_d_217_2310" x="22.9995" y="11.9995" width="10.001" height="11.0011" filterUnits="userSpaceOnUse" color-interpolation-filters="sRGB">
<feFlood flood-opacity="0" result="BackgroundImageFix"/>
<feColorMatrix in="SourceAlpha" type="matrix" values="0 0 0 0 0 0 0 0 0 0 0 0 0 0 0 0 0 0 127 0" result="hardAlpha"/>
<feOffset dy="2"/>
<feGaussianBlur stdDeviation="0.5"/>
<feComposite in2="hardAlpha" operator="out"/>
<feColorMatrix type="matrix" values="0 0 0 0 0.870833 0 0 0 0 0.217708 0 0 0 0 0.636999 0 0 0 1 0"/>
<feBlend mode="normal" in2="BackgroundImageFix" result="effect1_dropShadow_217_2310"/>
<feBlend mode="normal" in="SourceGraphic" in2="effect1_dropShadow_217_2310" result="shape"/>
</filter>
<clipPath id="clip0_217_2310">
<rect width="32" height="32" fill="white"/>
</clipPath>
</defs>
</svg>
